<svg width="86" height="108" viewBox="0 0 86 108" fill="none" xmlns="http://www.w3.org/2000/svg">
<path d="M43 84C59.5685 84 73 70.5685 73 54C73 37.4315 59.5685 24 43 24C26.4315 24 13 37.4315 13 54C13 70.5685 26.4315 84 43 84Z" fill="#191919"/>
<path d="M45.7362 67.1269C45.7362 71.2715 42.3789 74.6289 38.2343 74.6289C34.0897 74.6289 30.7324 71.2715 30.7324 67.1269C30.7324 62.9824 34.0957 59.625 38.2343 59.625C42.3729 59.625 45.7362 62.9824 45.7362 67.1269Z" fill="#EB001B"/>
<path d="M47.2452 59.625C45.5635 59.625 44.013 60.1855 42.7607 61.1218H42.7667C43.0112 61.3603 43.2855 61.5273 43.4942 61.8016L41.9318 61.8255C41.6873 62.07 41.4666 62.3383 41.252 62.6186H44.0011C44.2098 62.8691 44.4066 63.0897 44.5795 63.364H40.751C40.6079 63.6085 40.4827 63.853 40.3694 64.1095H45.0208C45.1401 64.3659 45.2534 64.5627 45.3428 64.831H40.0951C40.0116 65.0874 39.94 65.3558 39.8863 65.6242H45.5635C45.6172 65.8865 45.6589 66.1251 45.6887 66.3696H39.773C39.7492 66.6141 39.7373 66.8645 39.7373 67.121H45.7305C45.7305 67.3893 45.7126 67.6338 45.6828 67.8724H39.773C39.7969 68.1288 39.8386 68.3792 39.8863 68.6237H45.5516C45.4919 68.8682 45.4263 69.1127 45.3428 69.3632H40.0772C40.1547 69.6196 40.2561 69.8701 40.3574 70.1146H45.0149C44.8837 70.3889 44.7405 70.6036 44.5795 70.86H40.7391C40.8882 71.1224 41.0552 71.3729 41.24 71.6114L44.0011 71.6531C43.7625 71.9334 43.4644 72.1064 43.1901 72.3568C43.2079 72.3688 42.7488 72.3568 41.8543 72.3389C43.2199 73.7463 45.1222 74.6229 47.2392 74.6229C51.3838 74.6229 54.7411 71.2655 54.7411 67.121C54.7411 62.9764 51.3897 59.625 47.2452 59.625Z" fill="#F79E1B"/>
<path d="M40.2444 47L38.871 55.5415H41.0667L42.44 47H40.2444ZM46.8614 50.4786C46.0951 50.0997 45.6258 49.8457 45.6258 49.4583C45.6345 49.1052 46.0219 48.7436 46.8916 48.7436C47.6062 48.7264 48.1272 48.8943 48.5275 49.0579L48.7256 49.1483L49.0226 47.3616C48.5878 47.1937 47.9033 47.0086 47.0552 47.0086C44.8897 47.0086 43.3656 48.1366 43.3527 49.7467C43.3355 50.9349 44.4462 51.5936 45.2771 51.9897C46.1253 52.3944 46.4137 52.657 46.4137 53.0187C46.4051 53.574 45.7292 53.828 45.0963 53.828C44.2224 53.828 43.7531 53.6946 43.0384 53.3889L42.75 53.2554L42.4443 55.111C42.9609 55.3392 43.9081 55.5415 44.8897 55.5501C47.1929 55.5501 48.6911 54.4394 48.7084 52.7259C48.7127 51.7917 48.1272 51.0684 46.8614 50.4786ZM54.6452 47.0258H52.9447C52.4237 47.0258 52.0234 47.1765 51.7995 47.7147L48.5405 55.5415H50.8437L51.4766 53.8453H54.0511L54.3783 55.5458H56.4104L54.6452 47.0258ZM52.1181 52.1361C52.1611 52.1404 53.0006 49.3679 53.0006 49.3679L53.6679 52.1361C53.6679 52.1361 52.5486 52.1361 52.1181 52.1361ZM37.0413 47L34.8887 52.8034L34.6562 51.6582C34.2601 50.3365 33.0116 48.9029 31.6211 48.1925L33.5885 55.5329H35.909L39.3575 47H37.0413Z" fill="url(#paint0_linear_2612_7627)"/>
<path d="M33.9332 48.1037C33.7653 47.4537 33.2315 47.0145 32.5082 47.0059H29.1028L29.0684 47.1652C31.7247 47.8196 33.9505 49.8344 34.6737 51.7287L33.9332 48.1037Z" fill="url(#paint1_linear_2612_7627)"/>
<path fill-rule="evenodd" clip-rule="evenodd" d="M30.7252 34.0043C30.9878 34.0043 31.7713 33.9311 32.1028 35.0505C32.3267 35.8039 32.684 37.0395 33.1705 38.7529H33.3686C33.8938 36.9448 34.2511 35.7092 34.4492 35.0505C34.785 33.9182 35.6202 34.0043 35.956 34.0043H38.5391V42.0464H35.9043V37.3064H35.7278L34.2597 42.0464H32.2794L30.8113 37.3064H30.6348V42.0464H28V34.0043H30.7252ZM42.3234 34.0043V38.7443H42.5343L44.321 34.8438C44.6697 34.0689 45.4059 34 45.4059 34H47.9546V42.0421H45.2638V37.3021H45.0529L43.3006 41.2026C42.9519 41.9732 42.1813 42.0464 42.1813 42.0464H39.6326V34.0043H42.3234ZM57.2538 37.823C56.8792 38.8864 55.6996 39.6484 54.3951 39.6484H51.5752V42.0421H49.0179V37.823H57.2538Z" fill="#0F754E"/>
<path fill-rule="evenodd" clip-rule="evenodd" d="M54.5159 34.0039H48.8848C49.0182 35.7948 50.5595 37.3275 52.1567 37.3275H57.4306C57.7362 35.8379 56.6858 34.0039 54.5159 34.0039Z" fill="url(#paint2_linear_2612_7627)"/>
<path d="M12.63 101.18C11.766 101.18 11.02 100.992 10.392 100.616C9.76803 100.24 9.28603 99.714 8.94603 99.038C8.61003 98.362 8.44203 97.576 8.44203 96.68C8.44203 95.784 8.61003 94.998 8.94603 94.322C9.28603 93.646 9.76803 93.12 10.392 92.744C11.02 92.368 11.766 92.18 12.63 92.18C13.622 92.18 14.454 92.426 15.126 92.918C15.802 93.41 16.278 94.076 16.554 94.916L14.91 95.372C14.75 94.848 14.48 94.442 14.1 94.154C13.72 93.862 13.23 93.716 12.63 93.716C12.082 93.716 11.624 93.838 11.256 94.082C10.892 94.326 10.618 94.67 10.434 95.114C10.25 95.558 10.158 96.08 10.158 96.68C10.158 97.28 10.25 97.802 10.434 98.246C10.618 98.69 10.892 99.034 11.256 99.278C11.624 99.522 12.082 99.644 12.63 99.644C13.23 99.644 13.72 99.498 14.1 99.206C14.48 98.914 14.75 98.508 14.91 97.988L16.554 98.444C16.278 99.284 15.802 99.95 15.126 100.442C14.454 100.934 13.622 101.18 12.63 101.18ZM17.8632 101V94.52H23.6472V101H22.0152V96.044H19.4952V101H17.8632ZM28.2443 101.18C27.5923 101.18 27.0203 101.034 26.5283 100.742C26.0363 100.45 25.6523 100.048 25.3763 99.536C25.1043 99.02 24.9683 98.428 24.9683 97.76C24.9683 97.084 25.1083 96.49 25.3883 95.978C25.6683 95.462 26.0543 95.06 26.5463 94.772C27.0383 94.484 27.6043 94.34 28.2443 94.34C28.8963 94.34 29.4683 94.486 29.9603 94.778C30.4563 95.07 30.8423 95.474 31.1183 95.99C31.3943 96.502 31.5323 97.092 31.5323 97.76C31.5323 98.432 31.3923 99.026 31.1123 99.542C30.8363 100.054 30.4503 100.456 29.9543 100.748C29.4623 101.036 28.8923 101.18 28.2443 101.18ZM28.2443 99.656C28.7683 99.656 29.1583 99.48 29.4143 99.128C29.6743 98.772 29.8043 98.316 29.8043 97.76C29.8043 97.184 29.6723 96.724 29.4083 96.38C29.1483 96.036 28.7603 95.864 28.2443 95.864C27.8883 95.864 27.5963 95.944 27.3683 96.104C27.1403 96.264 26.9703 96.486 26.8583 96.77C26.7503 97.054 26.6963 97.384 26.6963 97.76C26.6963 98.34 26.8263 98.802 27.0863 99.146C27.3503 99.486 27.7363 99.656 28.2443 99.656ZM35.7077 101.18C35.0357 101.18 34.4597 101.03 33.9797 100.73C33.4997 100.43 33.1317 100.022 32.8757 99.506C32.6197 98.99 32.4917 98.408 32.4917 97.76C32.4917 97.104 32.6237 96.518 32.8877 96.002C33.1557 95.486 33.5317 95.08 34.0157 94.784C34.4997 94.488 35.0717 94.34 35.7317 94.34C36.4957 94.34 37.1357 94.534 37.6517 94.922C38.1717 95.306 38.5037 95.832 38.6477 96.5L37.0157 96.932C36.9197 96.596 36.7517 96.334 36.5117 96.146C36.2757 95.958 36.0077 95.864 35.7077 95.864C35.3637 95.864 35.0817 95.948 34.8617 96.116C34.6417 96.28 34.4797 96.506 34.3757 96.794C34.2717 97.078 34.2197 97.4 34.2197 97.76C34.2197 98.324 34.3437 98.782 34.5917 99.134C34.8437 99.482 35.2157 99.656 35.7077 99.656C36.0757 99.656 36.3557 99.572 36.5477 99.404C36.7397 99.236 36.8837 98.996 36.9797 98.684L38.6477 99.032C38.4637 99.72 38.1157 100.25 37.6037 100.622C37.0917 100.994 36.4597 101.18 35.7077 101.18ZM42.588 101.18C41.936 101.18 41.364 101.034 40.872 100.742C40.38 100.45 39.996 100.048 39.72 99.536C39.448 99.02 39.312 98.428 39.312 97.76C39.312 97.084 39.452 96.49 39.732 95.978C40.012 95.462 40.398 95.06 40.89 94.772C41.382 94.484 41.948 94.34 42.588 94.34C43.24 94.34 43.812 94.486 44.304 94.778C44.8 95.07 45.186 95.474 45.462 95.99C45.738 96.502 45.876 97.092 45.876 97.76C45.876 98.432 45.736 99.026 45.456 99.542C45.18 100.054 44.794 100.456 44.298 100.748C43.806 101.036 43.236 101.18 42.588 101.18ZM42.588 99.656C43.112 99.656 43.502 99.48 43.758 99.128C44.018 98.772 44.148 98.316 44.148 97.76C44.148 97.184 44.016 96.724 43.752 96.38C43.492 96.036 43.104 95.864 42.588 95.864C42.232 95.864 41.94 95.944 41.712 96.104C41.484 96.264 41.314 96.486 41.202 96.77C41.094 97.054 41.04 97.384 41.04 97.76C41.04 98.34 41.17 98.802 41.43 99.146C41.694 99.486 42.08 99.656 42.588 99.656ZM49.9255 101.192C49.3015 101.184 48.7735 101.046 48.3415 100.778C47.9095 100.506 47.5695 100.132 47.3215 99.656C47.0775 99.176 46.9255 98.62 46.8655 97.988C46.8335 97.648 46.8255 97.266 46.8415 96.842C46.8615 96.414 46.9075 95.994 46.9795 95.582C47.0515 95.17 47.1535 94.816 47.2855 94.52C47.4135 94.244 47.5775 93.992 47.7775 93.764C47.9815 93.532 48.1975 93.336 48.4255 93.176C48.6935 92.988 48.9815 92.844 49.2895 92.744C49.5975 92.64 49.9215 92.56 50.2615 92.504C50.6015 92.448 50.9535 92.398 51.3175 92.354C51.6855 92.31 52.0575 92.252 52.4335 92.18L52.5775 93.62C52.3495 93.68 52.0895 93.724 51.7975 93.752C51.5055 93.78 51.2055 93.81 50.8975 93.842C50.5895 93.87 50.2955 93.916 50.0155 93.98C49.7355 94.044 49.4935 94.14 49.2895 94.268C49.0135 94.44 48.8015 94.68 48.6535 94.988C48.5095 95.292 48.4255 95.6 48.4015 95.912C48.6495 95.552 48.9515 95.304 49.3075 95.168C49.6675 95.032 50.0215 94.964 50.3695 94.964C50.9415 94.964 51.4315 95.102 51.8395 95.378C52.2515 95.65 52.5675 96.018 52.7875 96.482C53.0075 96.942 53.1175 97.452 53.1175 98.012C53.1175 98.648 52.9795 99.206 52.7035 99.686C52.4315 100.166 52.0555 100.54 51.5755 100.808C51.0955 101.072 50.5455 101.2 49.9255 101.192ZM49.9975 99.668C50.4615 99.668 50.8115 99.524 51.0475 99.236C51.2835 98.948 51.4015 98.564 51.4015 98.084C51.4015 97.592 51.2795 97.206 51.0355 96.926C50.7955 96.642 50.4495 96.5 49.9975 96.5C49.5375 96.5 49.1875 96.642 48.9475 96.926C48.7115 97.206 48.5935 97.592 48.5935 98.084C48.5935 98.592 48.7155 98.984 48.9595 99.26C49.2035 99.532 49.5495 99.668 49.9975 99.668ZM56.84 101V92.36H58.496L62.252 98.12V92.36H63.908V101H62.252L58.496 95.24V101H56.84ZM66.92 96.5C66.524 96.5 66.162 96.404 65.834 96.212C65.506 96.016 65.244 95.756 65.048 95.432C64.856 95.104 64.76 94.74 64.76 94.34C64.76 93.948 64.86 93.588 65.06 93.26C65.26 92.932 65.524 92.67 65.852 92.474C66.18 92.278 66.536 92.18 66.92 92.18C67.316 92.18 67.676 92.278 68 92.474C68.328 92.666 68.59 92.926 68.786 93.254C68.982 93.578 69.08 93.94 69.08 94.34C69.08 94.74 68.982 95.104 68.786 95.432C68.59 95.756 68.328 96.016 68 96.212C67.676 96.404 67.316 96.5 66.92 96.5ZM66.92 95.12C67.06 95.12 67.188 95.084 67.304 95.012C67.424 94.94 67.52 94.846 67.592 94.73C67.664 94.61 67.7 94.48 67.7 94.34C67.7 94.2 67.664 94.072 67.592 93.956C67.52 93.836 67.424 93.74 67.304 93.668C67.188 93.596 67.06 93.56 66.92 93.56C66.78 93.56 66.65 93.596 66.53 93.668C66.414 93.74 66.32 93.836 66.248 93.956C66.176 94.072 66.14 94.2 66.14 94.34C66.14 94.48 66.176 94.61 66.248 94.73C66.32 94.846 66.414 94.94 66.53 95.012C66.65 95.084 66.78 95.12 66.92 95.12ZM65.12 98.3V97.04H68.72V98.3H65.12ZM70.2758 100.988V99.572L73.8998 96.356C74.1718 96.116 74.3638 95.89 74.4758 95.678C74.5878 95.466 74.6438 95.268 74.6438 95.084C74.6438 94.82 74.5898 94.586 74.4818 94.382C74.3738 94.174 74.2218 94.012 74.0258 93.896C73.8298 93.776 73.5998 93.716 73.3358 93.716C73.0598 93.716 72.8158 93.78 72.6038 93.908C72.3958 94.032 72.2338 94.198 72.1178 94.406C72.0018 94.61 71.9478 94.832 71.9558 95.072H70.2758C70.2758 94.48 70.4058 93.968 70.6658 93.536C70.9258 93.104 71.2878 92.77 71.7518 92.534C72.2158 92.298 72.7558 92.18 73.3718 92.18C73.9358 92.18 74.4398 92.304 74.8838 92.552C75.3318 92.796 75.6838 93.138 75.9398 93.578C76.1958 94.018 76.3238 94.528 76.3238 95.108C76.3238 95.536 76.2638 95.892 76.1438 96.176C76.0238 96.456 75.8458 96.716 75.6098 96.956C75.3738 97.192 75.0838 97.46 74.7398 97.76L72.3998 99.812L72.2678 99.452H76.3238V100.988H70.2758Z" fill="#EAEAEA"/>
<defs>
<linearGradient id="paint0_linear_2612_7627" x1="31.6237" y1="51.277" x2="56.4112" y2="51.277" gradientUnits="userSpaceOnUse">
<stop stop-color="#252764"/>
<stop offset="1" stop-color="#24489E"/>
</linearGradient>
<linearGradient id="paint1_linear_2612_7627" x1="30.0637" y1="46.0427" x2="35.2096" y2="51.1885" gradientUnits="userSpaceOnUse">
<stop stop-color="#252764"/>
<stop offset="1" stop-color="#24489E"/>
</linearGradient>
<linearGradient id="paint2_linear_2612_7627" x1="57.4823" y1="35.6633" x2="48.8833" y2="35.6633" gradientUnits="userSpaceOnUse">
<stop stop-color="#1F5CD7"/>
<stop offset="1" stop-color="#02AEFF"/>
</linearGradient>
</defs>
</svg>
