<svg width="106" height="108" viewBox="0 0 106 108" fill="none" xmlns="http://www.w3.org/2000/svg">
<path d="M7.74136 101.18C6.87736 101.18 6.13136 100.992 5.50336 100.616C4.87936 100.24 4.39736 99.714 4.05736 99.038C3.72136 98.362 3.55336 97.576 3.55336 96.68C3.55336 95.784 3.72136 94.998 4.05736 94.322C4.39736 93.646 4.87936 93.12 5.50336 92.744C6.13136 92.368 6.87736 92.18 7.74136 92.18C8.60536 92.18 9.34936 92.368 9.97336 92.744C10.6014 93.12 11.0834 93.646 11.4194 94.322C11.7594 94.998 11.9294 95.784 11.9294 96.68C11.9294 97.576 11.7594 98.362 11.4194 99.038C11.0834 99.714 10.6014 100.24 9.97336 100.616C9.34936 100.992 8.60536 101.18 7.74136 101.18ZM7.74136 99.644C8.28936 99.652 8.74536 99.534 9.10936 99.29C9.47336 99.046 9.74536 98.7 9.92536 98.252C10.1094 97.804 10.2014 97.28 10.2014 96.68C10.2014 96.08 10.1094 95.56 9.92536 95.12C9.74536 94.68 9.47336 94.338 9.10936 94.094C8.74536 93.85 8.28936 93.724 7.74136 93.716C7.19336 93.708 6.73736 93.826 6.37336 94.07C6.00936 94.314 5.73536 94.66 5.55136 95.108C5.37136 95.556 5.28136 96.08 5.28136 96.68C5.28136 97.28 5.37136 97.8 5.55136 98.24C5.73536 98.68 6.00936 99.022 6.37336 99.266C6.73736 99.51 7.19336 99.636 7.74136 99.644ZM13.1151 101V94.52H18.8991V101H17.2671V96.044H14.7471V101H13.1151ZM19.9802 101V99.644C20.2162 99.688 20.3982 99.686 20.5262 99.638C20.6542 99.586 20.7502 99.486 20.8142 99.338C20.8822 99.186 20.9402 98.98 20.9882 98.72C21.0522 98.376 21.1082 97.974 21.1562 97.514C21.2082 97.054 21.2522 96.568 21.2882 96.056C21.3242 95.54 21.3562 95.028 21.3842 94.52H26.2802V101H24.6482V96.044H22.8122C22.7962 96.252 22.7742 96.5 22.7462 96.788C22.7222 97.076 22.6942 97.376 22.6622 97.688C22.6342 97.996 22.6022 98.292 22.5662 98.576C22.5302 98.856 22.4922 99.096 22.4522 99.296C22.3562 99.804 22.2142 100.204 22.0262 100.496C21.8382 100.788 21.5802 100.974 21.2522 101.054C20.9242 101.138 20.5002 101.12 19.9802 101ZM29.763 101.18C29.299 101.18 28.905 101.092 28.581 100.916C28.261 100.736 28.017 100.498 27.849 100.202C27.685 99.902 27.603 99.572 27.603 99.212C27.603 98.912 27.649 98.638 27.741 98.39C27.833 98.142 27.981 97.924 28.185 97.736C28.393 97.544 28.671 97.384 29.019 97.256C29.259 97.168 29.545 97.09 29.877 97.022C30.209 96.954 30.585 96.89 31.005 96.83C31.425 96.766 31.887 96.696 32.391 96.62L31.803 96.944C31.803 96.56 31.711 96.278 31.527 96.098C31.343 95.918 31.035 95.828 30.603 95.828C30.363 95.828 30.113 95.886 29.853 96.002C29.593 96.118 29.411 96.324 29.307 96.62L27.831 96.152C27.995 95.616 28.303 95.18 28.755 94.844C29.207 94.508 29.823 94.34 30.603 94.34C31.175 94.34 31.683 94.428 32.127 94.604C32.571 94.78 32.907 95.084 33.135 95.516C33.263 95.756 33.339 95.996 33.363 96.236C33.387 96.476 33.399 96.744 33.399 97.04V101H31.971V99.668L32.175 99.944C31.859 100.38 31.517 100.696 31.149 100.892C30.785 101.084 30.323 101.18 29.763 101.18ZM30.111 99.896C30.411 99.896 30.663 99.844 30.867 99.74C31.075 99.632 31.239 99.51 31.359 99.374C31.483 99.238 31.567 99.124 31.611 99.032C31.695 98.856 31.743 98.652 31.755 98.42C31.771 98.184 31.779 97.988 31.779 97.832L32.259 97.952C31.775 98.032 31.383 98.1 31.083 98.156C30.783 98.208 30.541 98.256 30.357 98.3C30.173 98.344 30.011 98.392 29.871 98.444C29.711 98.508 29.581 98.578 29.481 98.654C29.385 98.726 29.313 98.806 29.265 98.894C29.221 98.982 29.199 99.08 29.199 99.188C29.199 99.336 29.235 99.464 29.307 99.572C29.383 99.676 29.489 99.756 29.625 99.812C29.761 99.868 29.923 99.896 30.111 99.896ZM36.5431 101V95.96H34.4191V94.52H40.2991V95.96H38.1751V101H36.5431ZM43.1107 101.18C42.6467 101.18 42.2527 101.092 41.9287 100.916C41.6087 100.736 41.3647 100.498 41.1967 100.202C41.0327 99.902 40.9507 99.572 40.9507 99.212C40.9507 98.912 40.9967 98.638 41.0887 98.39C41.1807 98.142 41.3287 97.924 41.5327 97.736C41.7407 97.544 42.0187 97.384 42.3667 97.256C42.6067 97.168 42.8927 97.09 43.2247 97.022C43.5567 96.954 43.9327 96.89 44.3527 96.83C44.7727 96.766 45.2347 96.696 45.7387 96.62L45.1507 96.944C45.1507 96.56 45.0587 96.278 44.8747 96.098C44.6907 95.918 44.3827 95.828 43.9507 95.828C43.7107 95.828 43.4607 95.886 43.2007 96.002C42.9407 96.118 42.7587 96.324 42.6547 96.62L41.1787 96.152C41.3427 95.616 41.6507 95.18 42.1027 94.844C42.5547 94.508 43.1707 94.34 43.9507 94.34C44.5227 94.34 45.0307 94.428 45.4747 94.604C45.9187 94.78 46.2547 95.084 46.4827 95.516C46.6107 95.756 46.6867 95.996 46.7107 96.236C46.7347 96.476 46.7467 96.744 46.7467 97.04V101H45.3187V99.668L45.5227 99.944C45.2067 100.38 44.8647 100.696 44.4967 100.892C44.1327 101.084 43.6707 101.18 43.1107 101.18ZM43.4587 99.896C43.7587 99.896 44.0107 99.844 44.2147 99.74C44.4227 99.632 44.5867 99.51 44.7067 99.374C44.8307 99.238 44.9147 99.124 44.9587 99.032C45.0427 98.856 45.0907 98.652 45.1027 98.42C45.1187 98.184 45.1267 97.988 45.1267 97.832L45.6067 97.952C45.1227 98.032 44.7307 98.1 44.4307 98.156C44.1307 98.208 43.8887 98.256 43.7047 98.3C43.5207 98.344 43.3587 98.392 43.2187 98.444C43.0587 98.508 42.9287 98.578 42.8287 98.654C42.7327 98.726 42.6607 98.806 42.6127 98.894C42.5687 98.982 42.5467 99.08 42.5467 99.188C42.5467 99.336 42.5827 99.464 42.6547 99.572C42.7307 99.676 42.8367 99.756 42.9727 99.812C43.1087 99.868 43.2707 99.896 43.4587 99.896ZM53.5651 101.18C52.8931 101.18 52.3171 101.03 51.8371 100.73C51.3571 100.43 50.9891 100.022 50.7331 99.506C50.4771 98.99 50.3491 98.408 50.3491 97.76C50.3491 97.104 50.4811 96.518 50.7451 96.002C51.0131 95.486 51.3891 95.08 51.8731 94.784C52.3571 94.488 52.9291 94.34 53.5891 94.34C54.3531 94.34 54.9931 94.534 55.5091 94.922C56.0291 95.306 56.3611 95.832 56.5051 96.5L54.8731 96.932C54.7771 96.596 54.6091 96.334 54.3691 96.146C54.1331 95.958 53.8651 95.864 53.5651 95.864C53.2211 95.864 52.9391 95.948 52.7191 96.116C52.4991 96.28 52.3371 96.506 52.2331 96.794C52.1291 97.078 52.0771 97.4 52.0771 97.76C52.0771 98.324 52.2011 98.782 52.4491 99.134C52.7011 99.482 53.0731 99.656 53.5651 99.656C53.9331 99.656 54.2131 99.572 54.4051 99.404C54.5971 99.236 54.7411 98.996 54.8371 98.684L56.5051 99.032C56.3211 99.72 55.9731 100.25 55.4611 100.622C54.9491 100.994 54.3171 101.18 53.5651 101.18ZM57.6932 101L57.7052 94.52H59.3612V97.64L61.5572 94.52H63.5732L61.2332 97.76L63.7292 101H61.6052L59.3612 97.88V101H57.6932ZM70.0983 94.52V101H68.5383V97.04L65.6103 101H64.3143V94.52H65.8743V98.348L68.8143 94.52H70.0983ZM71.7675 101V94.52H73.3995V96.992H76.0635V94.52H77.6955V101H76.0635V98.516H73.3995V101H71.7675ZM81.1732 101.18C80.7092 101.18 80.3152 101.092 79.9912 100.916C79.6712 100.736 79.4272 100.498 79.2592 100.202C79.0952 99.902 79.0132 99.572 79.0132 99.212C79.0132 98.912 79.0592 98.638 79.1512 98.39C79.2432 98.142 79.3912 97.924 79.5952 97.736C79.8032 97.544 80.0812 97.384 80.4292 97.256C80.6692 97.168 80.9552 97.09 81.2872 97.022C81.6192 96.954 81.9952 96.89 82.4152 96.83C82.8352 96.766 83.2972 96.696 83.8012 96.62L83.2132 96.944C83.2132 96.56 83.1212 96.278 82.9372 96.098C82.7532 95.918 82.4452 95.828 82.0132 95.828C81.7732 95.828 81.5232 95.886 81.2632 96.002C81.0032 96.118 80.8212 96.324 80.7172 96.62L79.2412 96.152C79.4052 95.616 79.7132 95.18 80.1652 94.844C80.6172 94.508 81.2332 94.34 82.0132 94.34C82.5852 94.34 83.0932 94.428 83.5372 94.604C83.9812 94.78 84.3172 95.084 84.5452 95.516C84.6732 95.756 84.7492 95.996 84.7732 96.236C84.7972 96.476 84.8092 96.744 84.8092 97.04V101H83.3812V99.668L83.5852 99.944C83.2692 100.38 82.9272 100.696 82.5592 100.892C82.1952 101.084 81.7332 101.18 81.1732 101.18ZM81.5212 99.896C81.8212 99.896 82.0732 99.844 82.2772 99.74C82.4852 99.632 82.6492 99.51 82.7692 99.374C82.8932 99.238 82.9772 99.124 83.0212 99.032C83.1052 98.856 83.1532 98.652 83.1652 98.42C83.1812 98.184 83.1892 97.988 83.1892 97.832L83.6692 97.952C83.1852 98.032 82.7932 98.1 82.4932 98.156C82.1932 98.208 81.9512 98.256 81.7672 98.3C81.5832 98.344 81.4212 98.392 81.2812 98.444C81.1212 98.508 80.9912 98.578 80.8912 98.654C80.7952 98.726 80.7232 98.806 80.6752 98.894C80.6312 98.982 80.6092 99.08 80.6092 99.188C80.6092 99.336 80.6452 99.464 80.7172 99.572C80.7932 99.676 80.8992 99.756 81.0352 99.812C81.1712 99.868 81.3332 99.896 81.5212 99.896ZM86.3573 101V94.52H87.6773L89.9333 98.72L92.1893 94.52H93.5093V101H91.9493V97.772L90.2213 101H89.6453L87.9173 97.772V101H86.3573ZM100.966 94.52V101H99.4055V97.04L96.4775 101H95.1815V94.52H96.7415V98.348L99.6815 94.52H100.966Z" fill="#D9D9D9"/>
<g clip-path="url(#clip0_4320_19713)">
<path d="M24.2593 62.6292C27.9657 74.9923 39.4308 84 53.0001 84C69.5683 84 83.0001 70.5682 83.0001 54C83.0001 37.4315 69.5683 24 53.0001 24C37.1011 24 24.0919 36.368 23.0645 52.0069C25.0059 55.267 25.7634 57.2833 24.2596 62.6292H24.2593Z" fill="url(#paint0_linear_4320_19713)"/>
<path d="M51.4554 46.4857C51.4554 46.5361 51.4554 46.5866 51.458 46.634L44.1169 57.298C42.9277 57.2439 41.7344 57.4525 40.6029 57.9186C40.1041 58.1221 39.6367 58.3718 39.1981 58.6602L23.0782 52.0242C23.0784 52.0242 22.7052 58.1607 24.2597 62.7341L35.6556 67.4362C36.2278 69.9933 37.9819 72.2362 40.5699 73.3152C44.8042 75.0843 49.6863 73.068 51.4477 68.8319C51.906 67.7246 52.1198 66.5632 52.0889 65.4045L62.5927 57.898C62.6777 57.9006 62.7653 57.9032 62.8503 57.9032C69.1361 57.9032 74.2451 52.7787 74.2451 46.4857C74.2451 40.1921 69.1361 35.0723 62.8503 35.0723C56.567 35.0723 51.4554 40.1921 51.4554 46.4857ZM49.694 68.0954C48.3308 71.3684 44.5696 72.9212 41.3002 71.559C39.792 70.9306 38.6533 69.7796 37.9963 68.407L41.7058 69.9444C44.1169 70.9487 46.883 69.8053 47.8853 67.395C48.8906 64.9821 47.7501 62.2113 45.3403 61.207L41.5057 59.6182C42.9854 59.0568 44.6674 59.0362 46.239 59.6903C47.8235 60.3495 49.0528 61.5907 49.7043 63.177C50.3558 64.7633 50.3533 66.5143 49.694 68.0954ZM62.8503 54.092C58.6657 54.092 55.2588 50.68 55.2588 46.4857C55.2588 42.2947 58.6657 38.8816 62.8503 38.8816C67.0374 38.8816 70.4442 42.2947 70.4442 46.4857C70.4442 50.68 67.0374 54.092 62.8503 54.092ZM57.1618 46.4741C57.1618 43.3188 59.7163 40.7596 62.8631 40.7596C66.0125 40.7596 68.567 43.3188 68.567 46.4741C68.567 49.6296 66.0125 52.1864 62.8631 52.1864C59.7163 52.1864 57.1618 49.6296 57.1618 46.4741Z" fill="white"/>
</g>
<defs>
<linearGradient id="paint0_linear_4320_19713" x1="53.0323" y1="24" x2="53.0323" y2="84" gradientUnits="userSpaceOnUse">
<stop stop-color="#111D2E"/>
<stop offset="0.21248" stop-color="#051839"/>
<stop offset="0.40695" stop-color="#0A1B48"/>
<stop offset="0.5811" stop-color="#132E62"/>
<stop offset="0.7376" stop-color="#144B7E"/>
<stop offset="0.87279" stop-color="#136497"/>
<stop offset="1" stop-color="#1387B8"/>
</linearGradient>
<clipPath id="clip0_4320_19713">
<rect width="60" height="60" fill="white" transform="translate(23 24)"/>
</clipPath>
</defs>
</svg>
