<svg width="60" height="60" viewBox="0 0 60 60" fill="none" xmlns="http://www.w3.org/2000/svg">
<path d="M30 60C46.5685 60 60 46.5685 60 30C60 13.4315 46.5685 0 30 0C13.4315 0 0 13.4315 0 30C0 46.5685 13.4315 60 30 60Z" fill="#A5A5A5"/>
<path d="M22.76 41.25L25.92 29.29L33.63 26.48L35.09 20.96L27.38 23.76L31.03 9.95999H26.18L22.01 25.72L14.47 28.46L13.01 33.98L20.55 31.24L16.66 45.94H43.59L44.84 41.25H22.76ZM22.76 41.25L25.92 29.29L33.63 26.48L35.09 20.96L27.38 23.76L31.03 9.95999H26.18L22.01 25.72L14.47 28.46L13.01 33.98L20.55 31.24L16.66 45.94H43.59L44.84 41.25H22.76ZM22.76 41.25L25.92 29.29L33.63 26.48L35.09 20.96L27.38 23.76L31.03 9.95999H26.18L22.01 25.72L14.47 28.46L13.01 33.98L20.55 31.24L16.66 45.94H43.59L44.84 41.25H22.76Z" fill="white"/>
</svg>
