<svg width="60" height="60" viewBox="0 0 60 60" fill="none" xmlns="http://www.w3.org/2000/svg">
<path d="M30 60C46.5685 60 60 46.5685 60 30C60 13.4315 46.5685 0 30 0C13.4315 0 0 13.4315 0 30C0 46.5685 13.4315 60 30 60Z" fill="#8DC351"/>
<path d="M44.05 24.92C42.63 24.2 40.92 24.05 38.94 24.48C40.65 22.25 40.71 19.81 39.12 17.18C38.55 16.22 37.86 15.48 37.04 14.97C36.22 14.45 35.32 14.16 34.31 14.09C33.31 14.02 32.28 14.09 31.25 14.29C30.21 14.5 29.07 14.83 27.82 15.3L25.08 9.56L21.57 11.23L24.23 16.81C23.62 17.1 22.7 17.56 21.47 18.18L18.79 12.55L15.28 14.22L18.02 19.96C17.53 20.21 16.79 20.57 15.82 21.04L10.98 23.32L12.76 27.06L15.29 25.85C16.44 25.3 17.37 25.49 18.06 26.43L21.18 32.97C21.33 32.9 21.46 32.85 21.56 32.82L21.2 32.99L25.57 42.15C25.82 42.98 25.56 43.58 24.8 43.94L22.27 45.15L23.55 49.66L28.11 47.49C28.4 47.35 28.82 47.16 29.37 46.9C29.92 46.65 30.33 46.46 30.61 46.32L33.38 52.13L36.89 50.46L34.15 44.72C34.8 44.43 35.73 44 36.94 43.42L39.67 49.14L43.18 47.47L40.41 41.66C41.63 41.01 42.68 40.36 43.56 39.74C44.44 39.11 45.24 38.41 45.95 37.63C46.66 36.85 47.18 36.06 47.52 35.24C47.86 34.43 48.03 33.52 48.02 32.51C48.02 31.51 47.81 30.44 47.4 29.31C46.59 27.1 45.48 25.63 44.05 24.92ZM23.51 22.24C23.62 22.19 23.91 22.04 24.4 21.8C24.89 21.56 25.3 21.35 25.62 21.19C25.94 21.03 26.39 20.84 26.97 20.62C27.55 20.4 28.04 20.24 28.46 20.13C28.88 20.02 29.35 19.95 29.89 19.91C30.43 19.87 30.89 19.91 31.29 20.03C31.68 20.15 32.07 20.36 32.44 20.66C32.81 20.96 33.12 21.36 33.36 21.86C33.56 22.29 33.68 22.71 33.71 23.12C33.74 23.53 33.67 23.92 33.51 24.29C33.35 24.66 33.17 25 32.96 25.31C32.75 25.62 32.45 25.94 32.06 26.26C31.66 26.58 31.31 26.85 31.01 27.07C30.7 27.29 30.31 27.53 29.82 27.79C29.33 28.05 28.96 28.25 28.7 28.38C28.45 28.51 28.09 28.68 27.64 28.89C27.19 29.1 26.92 29.22 26.85 29.25L23.51 22.24ZM40.49 33.19C40.51 33.61 40.47 34 40.37 34.37C40.26 34.74 40.07 35.11 39.8 35.48C39.52 35.86 39.24 36.19 38.95 36.47C38.66 36.76 38.29 37.07 37.84 37.39C37.39 37.72 36.99 37.99 36.63 38.2C36.28 38.42 35.85 38.66 35.34 38.93C34.83 39.2 34.44 39.4 34.15 39.54C33.86 39.68 33.49 39.85 33.05 40.05C32.61 40.25 32.32 40.38 32.2 40.44L28.53 32.74C28.65 32.68 29.01 32.5 29.6 32.2C30.19 31.9 30.68 31.66 31.06 31.48C31.44 31.3 31.97 31.07 32.66 30.8C33.35 30.53 33.94 30.33 34.44 30.2C34.94 30.07 35.5 29.98 36.13 29.91C36.76 29.84 37.31 29.87 37.77 29.98C38.23 30.09 38.68 30.31 39.11 30.63C39.54 30.95 39.89 31.38 40.15 31.92C40.36 32.35 40.47 32.77 40.49 33.19Z" fill="white"/>
</svg>
