<svg width="86" height="108" viewBox="0 0 86 108" fill="none" xmlns="http://www.w3.org/2000/svg">
<path d="M43 84C59.5685 84 73 70.5685 73 54C73 37.4315 59.5685 24 43 24C26.4315 24 13 37.4315 13 54C13 70.5685 26.4315 84 43 84Z" fill="#F1F1F1"/>
<path d="M45.7362 67.1269C45.7362 71.2715 42.3789 74.6289 38.2343 74.6289C34.0897 74.6289 30.7324 71.2715 30.7324 67.1269C30.7324 62.9824 34.0957 59.625 38.2343 59.625C42.3729 59.625 45.7362 62.9824 45.7362 67.1269Z" fill="#EB001B"/>
<path d="M47.2452 59.625C45.5635 59.625 44.013 60.1855 42.7607 61.1218H42.7667C43.0112 61.3603 43.2855 61.5273 43.4942 61.8016L41.9318 61.8255C41.6873 62.07 41.4666 62.3383 41.252 62.6186H44.0011C44.2098 62.8691 44.4066 63.0897 44.5795 63.364H40.751C40.6079 63.6085 40.4827 63.853 40.3694 64.1095H45.0208C45.1401 64.3659 45.2534 64.5627 45.3428 64.831H40.0951C40.0116 65.0874 39.94 65.3558 39.8863 65.6242H45.5635C45.6172 65.8865 45.6589 66.1251 45.6887 66.3696H39.773C39.7492 66.6141 39.7373 66.8645 39.7373 67.121H45.7305C45.7305 67.3893 45.7126 67.6338 45.6828 67.8724H39.773C39.7969 68.1288 39.8386 68.3792 39.8863 68.6237H45.5516C45.4919 68.8682 45.4263 69.1127 45.3428 69.3632H40.0772C40.1547 69.6196 40.2561 69.8701 40.3574 70.1146H45.0149C44.8837 70.3889 44.7405 70.6036 44.5795 70.86H40.7391C40.8882 71.1224 41.0552 71.3729 41.24 71.6114L44.0011 71.6531C43.7625 71.9334 43.4644 72.1064 43.1901 72.3568C43.2079 72.3688 42.7488 72.3568 41.8543 72.3389C43.2199 73.7463 45.1222 74.6229 47.2392 74.6229C51.3838 74.6229 54.7411 71.2655 54.7411 67.121C54.7411 62.9764 51.3897 59.625 47.2452 59.625Z" fill="#F79E1B"/>
<path d="M40.2444 47L38.871 55.5415H41.0667L42.44 47H40.2444ZM46.8614 50.4786C46.0951 50.0997 45.6258 49.8457 45.6258 49.4583C45.6345 49.1052 46.0219 48.7436 46.8916 48.7436C47.6062 48.7264 48.1272 48.8943 48.5275 49.0579L48.7256 49.1483L49.0226 47.3616C48.5878 47.1937 47.9033 47.0086 47.0552 47.0086C44.8897 47.0086 43.3656 48.1366 43.3527 49.7467C43.3355 50.9349 44.4462 51.5936 45.2771 51.9897C46.1253 52.3944 46.4137 52.657 46.4137 53.0187C46.4051 53.574 45.7292 53.828 45.0963 53.828C44.2224 53.828 43.7531 53.6946 43.0384 53.3889L42.75 53.2554L42.4443 55.111C42.9609 55.3392 43.9081 55.5415 44.8897 55.5501C47.1929 55.5501 48.6911 54.4394 48.7084 52.7259C48.7127 51.7917 48.1272 51.0684 46.8614 50.4786ZM54.6452 47.0258H52.9447C52.4237 47.0258 52.0234 47.1765 51.7995 47.7147L48.5405 55.5415H50.8437L51.4766 53.8453H54.0511L54.3783 55.5458H56.4104L54.6452 47.0258ZM52.1181 52.1361C52.1611 52.1404 53.0006 49.3679 53.0006 49.3679L53.6679 52.1361C53.6679 52.1361 52.5486 52.1361 52.1181 52.1361ZM37.0413 47L34.8887 52.8034L34.6562 51.6582C34.2601 50.3365 33.0116 48.9029 31.6211 48.1925L33.5885 55.5329H35.909L39.3575 47H37.0413Z" fill="url(#paint0_linear_2611_7625)"/>
<path d="M33.9332 48.1037C33.7653 47.4537 33.2315 47.0145 32.5082 47.0059H29.1028L29.0684 47.1652C31.7247 47.8196 33.9505 49.8344 34.6737 51.7287L33.9332 48.1037Z" fill="url(#paint1_linear_2611_7625)"/>
<path fill-rule="evenodd" clip-rule="evenodd" d="M30.7252 34.0043C30.9878 34.0043 31.7713 33.9311 32.1028 35.0505C32.3267 35.8039 32.684 37.0395 33.1705 38.7529H33.3686C33.8938 36.9448 34.2511 35.7092 34.4492 35.0505C34.785 33.9182 35.6202 34.0043 35.956 34.0043H38.5391V42.0464H35.9043V37.3064H35.7278L34.2597 42.0464H32.2794L30.8113 37.3064H30.6348V42.0464H28V34.0043H30.7252ZM42.3234 34.0043V38.7443H42.5343L44.321 34.8438C44.6697 34.0689 45.4059 34 45.4059 34H47.9546V42.0421H45.2638V37.3021H45.0529L43.3006 41.2026C42.9519 41.9732 42.1813 42.0464 42.1813 42.0464H39.6326V34.0043H42.3234ZM57.2538 37.823C56.8792 38.8864 55.6996 39.6484 54.3951 39.6484H51.5752V42.0421H49.0179V37.823H57.2538Z" fill="#0F754E"/>
<path fill-rule="evenodd" clip-rule="evenodd" d="M54.5159 34.0039H48.8848C49.0182 35.7948 50.5595 37.3275 52.1567 37.3275H57.4306C57.7362 35.8379 56.6858 34.0039 54.5159 34.0039Z" fill="url(#paint2_linear_2611_7625)"/>
<path d="M13.0265 101.18C12.1625 101.18 11.4165 100.992 10.7885 100.616C10.1645 100.24 9.68252 99.714 9.34252 99.038C9.00652 98.362 8.83852 97.576 8.83852 96.68C8.83852 95.784 9.00652 94.998 9.34252 94.322C9.68252 93.646 10.1645 93.12 10.7885 92.744C11.4165 92.368 12.1625 92.18 13.0265 92.18C14.0185 92.18 14.8505 92.426 15.5225 92.918C16.1985 93.41 16.6745 94.076 16.9505 94.916L15.3065 95.372C15.1465 94.848 14.8765 94.442 14.4965 94.154C14.1165 93.862 13.6265 93.716 13.0265 93.716C12.4785 93.716 12.0205 93.838 11.6525 94.082C11.2885 94.326 11.0145 94.67 10.8305 95.114C10.6465 95.558 10.5545 96.08 10.5545 96.68C10.5545 97.28 10.6465 97.802 10.8305 98.246C11.0145 98.69 11.2885 99.034 11.6525 99.278C12.0205 99.522 12.4785 99.644 13.0265 99.644C13.6265 99.644 14.1165 99.498 14.4965 99.206C14.8765 98.914 15.1465 98.508 15.3065 97.988L16.9505 98.444C16.6745 99.284 16.1985 99.95 15.5225 100.442C14.8505 100.934 14.0185 101.18 13.0265 101.18ZM18.2596 101V94.52H24.0436V101H22.4116V96.044H19.8916V101H18.2596ZM28.6408 101.18C27.9888 101.18 27.4168 101.034 26.9248 100.742C26.4328 100.45 26.0488 100.048 25.7728 99.536C25.5008 99.02 25.3648 98.428 25.3648 97.76C25.3648 97.084 25.5048 96.49 25.7848 95.978C26.0648 95.462 26.4508 95.06 26.9428 94.772C27.4348 94.484 28.0008 94.34 28.6408 94.34C29.2928 94.34 29.8648 94.486 30.3568 94.778C30.8528 95.07 31.2388 95.474 31.5148 95.99C31.7908 96.502 31.9288 97.092 31.9288 97.76C31.9288 98.432 31.7888 99.026 31.5088 99.542C31.2328 100.054 30.8468 100.456 30.3508 100.748C29.8588 101.036 29.2888 101.18 28.6408 101.18ZM28.6408 99.656C29.1648 99.656 29.5548 99.48 29.8108 99.128C30.0708 98.772 30.2008 98.316 30.2008 97.76C30.2008 97.184 30.0688 96.724 29.8048 96.38C29.5448 96.036 29.1568 95.864 28.6408 95.864C28.2848 95.864 27.9928 95.944 27.7648 96.104C27.5368 96.264 27.3668 96.486 27.2548 96.77C27.1468 97.054 27.0928 97.384 27.0928 97.76C27.0928 98.34 27.2228 98.802 27.4828 99.146C27.7468 99.486 28.1328 99.656 28.6408 99.656ZM36.1042 101.18C35.4322 101.18 34.8562 101.03 34.3762 100.73C33.8962 100.43 33.5282 100.022 33.2722 99.506C33.0162 98.99 32.8882 98.408 32.8882 97.76C32.8882 97.104 33.0202 96.518 33.2842 96.002C33.5522 95.486 33.9282 95.08 34.4122 94.784C34.8962 94.488 35.4682 94.34 36.1282 94.34C36.8922 94.34 37.5322 94.534 38.0482 94.922C38.5682 95.306 38.9002 95.832 39.0442 96.5L37.4122 96.932C37.3162 96.596 37.1482 96.334 36.9082 96.146C36.6722 95.958 36.4042 95.864 36.1042 95.864C35.7602 95.864 35.4782 95.948 35.2582 96.116C35.0382 96.28 34.8762 96.506 34.7722 96.794C34.6682 97.078 34.6162 97.4 34.6162 97.76C34.6162 98.324 34.7402 98.782 34.9882 99.134C35.2402 99.482 35.6122 99.656 36.1042 99.656C36.4722 99.656 36.7522 99.572 36.9442 99.404C37.1362 99.236 37.2802 98.996 37.3762 98.684L39.0442 99.032C38.8602 99.72 38.5122 100.25 38.0002 100.622C37.4882 100.994 36.8562 101.18 36.1042 101.18ZM42.9845 101.18C42.3325 101.18 41.7605 101.034 41.2685 100.742C40.7765 100.45 40.3925 100.048 40.1165 99.536C39.8445 99.02 39.7085 98.428 39.7085 97.76C39.7085 97.084 39.8485 96.49 40.1285 95.978C40.4085 95.462 40.7945 95.06 41.2865 94.772C41.7785 94.484 42.3445 94.34 42.9845 94.34C43.6365 94.34 44.2085 94.486 44.7005 94.778C45.1965 95.07 45.5825 95.474 45.8585 95.99C46.1345 96.502 46.2725 97.092 46.2725 97.76C46.2725 98.432 46.1325 99.026 45.8525 99.542C45.5765 100.054 45.1905 100.456 44.6945 100.748C44.2025 101.036 43.6325 101.18 42.9845 101.18ZM42.9845 99.656C43.5085 99.656 43.8985 99.48 44.1545 99.128C44.4145 98.772 44.5445 98.316 44.5445 97.76C44.5445 97.184 44.4125 96.724 44.1485 96.38C43.8885 96.036 43.5005 95.864 42.9845 95.864C42.6285 95.864 42.3365 95.944 42.1085 96.104C41.8805 96.264 41.7105 96.486 41.5985 96.77C41.4905 97.054 41.4365 97.384 41.4365 97.76C41.4365 98.34 41.5665 98.802 41.8265 99.146C42.0905 99.486 42.4765 99.656 42.9845 99.656ZM50.322 101.192C49.698 101.184 49.17 101.046 48.738 100.778C48.306 100.506 47.966 100.132 47.718 99.656C47.474 99.176 47.322 98.62 47.262 97.988C47.23 97.648 47.222 97.266 47.238 96.842C47.258 96.414 47.304 95.994 47.376 95.582C47.448 95.17 47.55 94.816 47.682 94.52C47.81 94.244 47.974 93.992 48.174 93.764C48.378 93.532 48.594 93.336 48.822 93.176C49.09 92.988 49.378 92.844 49.686 92.744C49.994 92.64 50.318 92.56 50.658 92.504C50.998 92.448 51.35 92.398 51.714 92.354C52.082 92.31 52.454 92.252 52.83 92.18L52.974 93.62C52.746 93.68 52.486 93.724 52.194 93.752C51.902 93.78 51.602 93.81 51.294 93.842C50.986 93.87 50.692 93.916 50.412 93.98C50.132 94.044 49.89 94.14 49.686 94.268C49.41 94.44 49.198 94.68 49.05 94.988C48.906 95.292 48.822 95.6 48.798 95.912C49.046 95.552 49.348 95.304 49.704 95.168C50.064 95.032 50.418 94.964 50.766 94.964C51.338 94.964 51.828 95.102 52.236 95.378C52.648 95.65 52.964 96.018 53.184 96.482C53.404 96.942 53.514 97.452 53.514 98.012C53.514 98.648 53.376 99.206 53.1 99.686C52.828 100.166 52.452 100.54 51.972 100.808C51.492 101.072 50.942 101.2 50.322 101.192ZM50.394 99.668C50.858 99.668 51.208 99.524 51.444 99.236C51.68 98.948 51.798 98.564 51.798 98.084C51.798 97.592 51.676 97.206 51.432 96.926C51.192 96.642 50.846 96.5 50.394 96.5C49.934 96.5 49.584 96.642 49.344 96.926C49.108 97.206 48.99 97.592 48.99 98.084C48.99 98.592 49.112 98.984 49.356 99.26C49.6 99.532 49.946 99.668 50.394 99.668ZM57.2365 101V92.36H58.8925L62.6485 98.12V92.36H64.3045V101H62.6485L58.8925 95.24V101H57.2365ZM67.3165 96.5C66.9205 96.5 66.5585 96.404 66.2305 96.212C65.9025 96.016 65.6405 95.756 65.4445 95.432C65.2525 95.104 65.1565 94.74 65.1565 94.34C65.1565 93.948 65.2565 93.588 65.4565 93.26C65.6565 92.932 65.9205 92.67 66.2485 92.474C66.5765 92.278 66.9325 92.18 67.3165 92.18C67.7125 92.18 68.0725 92.278 68.3965 92.474C68.7245 92.666 68.9865 92.926 69.1825 93.254C69.3785 93.578 69.4765 93.94 69.4765 94.34C69.4765 94.74 69.3785 95.104 69.1825 95.432C68.9865 95.756 68.7245 96.016 68.3965 96.212C68.0725 96.404 67.7125 96.5 67.3165 96.5ZM67.3165 95.12C67.4565 95.12 67.5845 95.084 67.7005 95.012C67.8205 94.94 67.9165 94.846 67.9885 94.73C68.0605 94.61 68.0965 94.48 68.0965 94.34C68.0965 94.2 68.0605 94.072 67.9885 93.956C67.9165 93.836 67.8205 93.74 67.7005 93.668C67.5845 93.596 67.4565 93.56 67.3165 93.56C67.1765 93.56 67.0465 93.596 66.9265 93.668C66.8105 93.74 66.7165 93.836 66.6445 93.956C66.5725 94.072 66.5365 94.2 66.5365 94.34C66.5365 94.48 66.5725 94.61 66.6445 94.73C66.7165 94.846 66.8105 94.94 66.9265 95.012C67.0465 95.084 67.1765 95.12 67.3165 95.12ZM65.5165 98.3V97.04H69.1165V98.3H65.5165ZM72.4123 101V94.136L70.7923 95.132V93.332L72.4123 92.36H74.0803V101H72.4123Z" fill="#D9D9D9"/>
<defs>
<linearGradient id="paint0_linear_2611_7625" x1="31.6237" y1="51.277" x2="56.4112" y2="51.277" gradientUnits="userSpaceOnUse">
<stop stop-color="#252764"/>
<stop offset="1" stop-color="#24489E"/>
</linearGradient>
<linearGradient id="paint1_linear_2611_7625" x1="30.0637" y1="46.0427" x2="35.2096" y2="51.1885" gradientUnits="userSpaceOnUse">
<stop stop-color="#252764"/>
<stop offset="1" stop-color="#24489E"/>
</linearGradient>
<linearGradient id="paint2_linear_2611_7625" x1="57.4823" y1="35.6633" x2="48.8833" y2="35.6633" gradientUnits="userSpaceOnUse">
<stop stop-color="#1F5CD7"/>
<stop offset="1" stop-color="#02AEFF"/>
</linearGradient>
</defs>
</svg>
