<svg width="60" height="60" viewBox="0 0 60 60" fill="none" xmlns="http://www.w3.org/2000/svg">
<path d="M60 30C60 46.57 46.57 60 30 60C19.96 60 11.06 55.06 5.62 47.48C4.91 46.5 4.27 45.47 3.68 44.4C1.33 40.13 0 35.22 0 30C0 13.43 13.43 0 30 0C41.19 0 50.95 6.13 56.11 15.21C56.79 16.4 57.39 17.65 57.9 18.93C59.25 22.36 60 26.09 60 30Z" fill="#1273BF"/>
<path d="M26.11 27.86H11.67L9.95996 33.32H24.4L26.11 27.86Z" fill="#F0EFEB"/>
<path d="M49.48 24.1C48.25 28.45 46.98 32.82 45.27 36.99C43.82 40.53 40.86 42.49 36.89 42.5C28.83 42.52 20.78 42.51 12.72 42.51C12.22 41.82 11.76 41.09 11.35 40.34C11.66 39.37 11.99 38.34 12.22 37.6L12.58 36.48H13.62C20.5 36.47 27.39 36.47 34.27 36.47C37.07 36.47 37.07 36.47 37.92 33.83C38.8 31.09 39.63 28.34 40.56 25.63C40.88 24.69 40.69 24.53 39.75 24.54C32.43 24.58 16.41 24.57 16.41 24.57L18.31 18.62C18.31 18.62 36.77 18.6 45.55 18.63C46.68 18.63 47.66 19.04 48.39 19.72C49.1 20.38 49.56 21.3 49.65 22.35C49.7 22.9 49.65 23.49 49.48 24.1Z" fill="#F0EFEB"/>
<path d="M16.3999 24.6L16.4099 24.57H16.3999V24.6Z" fill="#F0EFEB"/>
</svg>
