<svg width="86" height="108" xmlns="http://www.w3.org/2000/svg">
 <defs>
  <linearGradient y2="0.500228" x2="1.000032" y1="0.500228" x1="0.000105" id="paint0_linear_3735_17944">
   <stop stop-color="#252764"/>
   <stop stop-color="#24489E" offset="1"/>
  </linearGradient>
  <linearGradient y2="0.885619" x2="1.095606" y1="-0.203947" x1="0.177564" id="paint1_linear_3735_17944">
   <stop stop-color="#252764"/>
   <stop stop-color="#24489E" offset="1"/>
  </linearGradient>
  <linearGradient y2="0.499278" x2="-0.000174" y1="0.499278" x1="0.999965" id="paint2_linear_3735_17944">
   <stop stop-color="#1F5CD7"/>
   <stop stop-color="#02AEFF" offset="1"/>
  </linearGradient>
 </defs>
 <g>
  <title>background</title>
  <rect fill="none" id="canvas_background" height="402" width="582" y="-1" x="-1"/>
 </g>
 <g>
  <title>Layer 1</title>
  <path id="svg_1" fill="#bfbbbb" d="m42.090909,83.545455c16.5685,0 30,-13.4315 30,-30c0,-16.5685 -13.4315,-30 -30,-30c-16.5685,0 -30,13.4315 -30,30c0,16.5685 13.4315,30 30,30z"/>
  <path id="svg_2" fill="#EB001B" d="m45.7362,67.1269c0,4.1446 -3.3573,7.502 -7.5019,7.502c-4.1446,0 -7.5019,-3.3574 -7.5019,-7.502c0,-4.1445 3.3633,-7.5019 7.5019,-7.5019c4.1386,0 7.5019,3.3574 7.5019,7.5019z"/>
  <path id="svg_3" fill="#F79E1B" d="m47.2452,59.625c-1.6817,0 -3.2322,0.5605 -4.4845,1.4968l0.006,0c0.2445,0.2385 0.5188,0.4055 0.7275,0.6798l-1.5624,0.0239c-0.2445,0.2445 -0.4652,0.5128 -0.6798,0.7931l2.7491,0c0.2087,0.2505 0.4055,0.4711 0.5784,0.7454l-3.8285,0c-0.1431,0.2445 -0.2683,0.489 -0.3816,0.7455l4.6514,0c0.1193,0.2564 0.2326,0.4532 0.322,0.7215l-5.2477,0c-0.0835,0.2564 -0.1551,0.5248 -0.2088,0.7932l5.6772,0c0.0537,0.2623 0.0954,0.5009 0.1252,0.7454l-5.9157,0c-0.0238,0.2445 -0.0357,0.4949 -0.0357,0.7514l5.9932,0c0,0.2683 -0.0179,0.5128 -0.0477,0.7514l-5.9098,0c0.0239,0.2564 0.0656,0.5068 0.1133,0.7513l5.6653,0c-0.0597,0.2445 -0.1253,0.489 -0.2088,0.7395l-5.2656,0c0.0775,0.2564 0.1789,0.5069 0.2802,0.7514l4.6575,0c-0.1312,0.2743 -0.2744,0.489 -0.4354,0.7454l-3.8404,0c0.1491,0.2624 0.3161,0.5129 0.5009,0.7514l2.7611,0.0417c-0.2386,0.2803 -0.5367,0.4533 -0.811,0.7037c0.0178,0.012 -0.4413,0 -1.3358,-0.0179c1.3656,1.4074 3.2679,2.284 5.3849,2.284c4.1446,0 7.5019,-3.3574 7.5019,-7.5019c0,-4.1446 -3.3514,-7.496 -7.4959,-7.496z"/>
  <path id="svg_4" fill="url(#paint0_linear_3735_17944)" d="m40.2444,47l-1.3734,8.5415l2.1957,0l1.3733,-8.5415l-2.1956,0zm6.617,3.4786c-0.7663,-0.3789 -1.2356,-0.6329 -1.2356,-1.0203c0.0087,-0.3531 0.3961,-0.7147 1.2658,-0.7147c0.7146,-0.0172 1.2356,0.1507 1.6359,0.3143l0.1981,0.0904l0.297,-1.7867c-0.4348,-0.1679 -1.1193,-0.353 -1.9674,-0.353c-2.1655,0 -3.6896,1.128 -3.7025,2.7381c-0.0172,1.1882 1.0935,1.8469 1.9244,2.243c0.8482,0.4047 1.1366,0.6673 1.1366,1.029c-0.0086,0.5553 -0.6845,0.8093 -1.3174,0.8093c-0.8739,0 -1.3432,-0.1334 -2.0579,-0.4391l-0.2884,-0.1335l-0.3057,1.8556c0.5166,0.2282 1.4638,0.4305 2.4454,0.4391c2.3032,0 3.8014,-1.1107 3.8187,-2.8242c0.0043,-0.9342 -0.5812,-1.6575 -1.847,-2.2473zm7.7838,-3.4528l-1.7005,0c-0.521,0 -0.9213,0.1507 -1.1452,0.6889l-3.259,7.8268l2.3032,0l0.6329,-1.6962l2.5745,0l0.3272,1.7005l2.0321,0l-1.7652,-8.52zm-2.5271,5.1103c0.043,0.0043 0.8825,-2.7682 0.8825,-2.7682l0.6673,2.7682c0,0 -1.1193,0 -1.5498,0zm-15.0768,-5.1361l-2.1526,5.8034l-0.2325,-1.1452c-0.3961,-1.3217 -1.6446,-2.7553 -3.0351,-3.4657l1.9674,7.3404l2.3205,0l3.4485,-8.5329l-2.3162,0z"/>
  <path id="svg_5" fill="url(#paint1_linear_3735_17944)" d="m33.9332,48.1037c-0.1679,-0.65 -0.7017,-1.0892 -1.425,-1.0978l-3.4054,0l-0.0344,0.1593c2.6563,0.6544 4.8821,2.6692 5.6053,4.5635l-0.7405,-3.625z"/>
  <path id="svg_6" fill="#0F754E" d="m30.7252,34.0043c0.2626,0 1.0461,-0.0732 1.3776,1.0462c0.2239,0.7534 0.5812,1.989 1.0677,3.7024l0.1981,0c0.5252,-1.8081 0.8825,-3.0437 1.0806,-3.7024c0.3358,-1.1323 1.171,-1.0462 1.5068,-1.0462l2.5831,0l0,8.0421l-2.6348,0l0,-4.74l-0.1765,0l-1.4681,4.74l-1.9803,0l-1.4681,-4.74l-0.1765,0l0,4.74l-2.6348,0l0,-8.0421l2.7252,0zm11.5982,0l0,4.74l0.2109,0l1.7867,-3.9005c0.3487,-0.7749 1.0849,-0.8438 1.0849,-0.8438l2.5487,0l0,8.0421l-2.6908,0l0,-4.74l-0.2109,0l-1.7523,3.9005c-0.3487,0.7706 -1.1193,0.8438 -1.1193,0.8438l-2.5487,0l0,-8.0421l2.6908,0zm14.9304,3.8187c-0.3746,1.0634 -1.5542,1.8254 -2.8587,1.8254l-2.8199,0l0,2.3937l-2.5573,0l0,-4.2191l8.2359,0z" clip-rule="evenodd" fill-rule="evenodd"/>
  <path id="svg_7" fill="url(#paint2_linear_3735_17944)" d="m54.5159,34.0039l-5.6311,0c0.1334,1.7909 1.6747,3.3236 3.2719,3.3236l5.2739,0c0.3056,-1.4896 -0.7448,-3.3236 -2.9147,-3.3236z" clip-rule="evenodd" fill-rule="evenodd"/>
  <path id="svg_8" fill="#D9D9D9" d="m12.7062,101.18c-0.864,0 -1.61,-0.188 -2.238,-0.564c-0.624,-0.376 -1.106,-0.902 -1.446,-1.578c-0.336,-0.676 -0.504,-1.462 -0.504,-2.358c0,-0.896 0.168,-1.682 0.504,-2.358c0.34,-0.676 0.822,-1.202 1.446,-1.578c0.628,-0.376 1.374,-0.564 2.238,-0.564c0.992,0 1.824,0.246 2.496,0.738c0.676,0.492 1.152,1.158 1.428,1.998l-1.644,0.456c-0.16,-0.524 -0.43,-0.93 -0.81,-1.218c-0.38,-0.292 -0.87,-0.438 -1.47,-0.438c-0.548,0 -1.006,0.122 -1.374,0.366c-0.364,0.244 -0.638,0.588 -0.822,1.032c-0.184,0.444 -0.276,0.966 -0.276,1.566c0,0.6 0.092,1.122 0.276,1.566c0.184,0.444 0.458,0.788 0.822,1.032c0.368,0.244 0.826,0.366 1.374,0.366c0.6,0 1.09,-0.146 1.47,-0.438c0.38,-0.292 0.65,-0.698 0.81,-1.218l1.644,0.456c-0.276,0.84 -0.752,1.506 -1.428,1.998c-0.672,0.492 -1.504,0.738 -2.496,0.738zm5.2331,-0.18l0,-6.48l5.784,0l0,6.48l-1.632,0l0,-4.956l-2.52,0l0,4.956l-1.632,0zm10.3812,0.18c-0.652,0 -1.224,-0.146 -1.716,-0.438c-0.492,-0.292 -0.876,-0.694 -1.152,-1.206c-0.272,-0.516 -0.408,-1.108 -0.408,-1.776c0,-0.676 0.14,-1.27 0.42,-1.782c0.28,-0.516 0.666,-0.918 1.158,-1.206c0.492,-0.288 1.058,-0.432 1.698,-0.432c0.652,0 1.224,0.146 1.716,0.438c0.496,0.292 0.882,0.696 1.158,1.212c0.276,0.512 0.414,1.102 0.414,1.77c0,0.672 -0.14,1.266 -0.42,1.782c-0.276,0.512 -0.662,0.914 -1.158,1.206c-0.492,0.288 -1.062,0.432 -1.71,0.432zm0,-1.524c0.524,0 0.914,-0.176 1.17,-0.528c0.26,-0.356 0.39,-0.812 0.39,-1.368c0,-0.576 -0.132,-1.036 -0.396,-1.38c-0.26,-0.344 -0.648,-0.516 -1.164,-0.516c-0.356,0 -0.648,0.08 -0.876,0.24c-0.228,0.16 -0.398,0.382 -0.51,0.666c-0.108,0.284 -0.162,0.614 -0.162,0.99c0,0.58 0.13,1.042 0.39,1.386c0.264,0.34 0.65,0.51 1.158,0.51zm7.4634,1.524c-0.672,0 -1.248,-0.15 -1.728,-0.45c-0.48,-0.3 -0.848,-0.708 -1.104,-1.224c-0.256,-0.516 -0.384,-1.098 -0.384,-1.746c0,-0.656 0.132,-1.242 0.396,-1.758c0.268,-0.516 0.644,-0.922 1.128,-1.218c0.484,-0.296 1.056,-0.444 1.716,-0.444c0.764,0 1.404,0.194 1.92,0.582c0.52,0.384 0.852,0.91 0.996,1.578l-1.632,0.432c-0.096,-0.336 -0.264,-0.598 -0.504,-0.786c-0.236,-0.188 -0.504,-0.282 -0.804,-0.282c-0.344,0 -0.626,0.084 -0.846,0.252c-0.22,0.164 -0.382,0.39 -0.486,0.678c-0.104,0.284 -0.156,0.606 -0.156,0.966c0,0.564 0.124,1.022 0.372,1.374c0.252,0.348 0.624,0.522 1.116,0.522c0.368,0 0.648,-0.084 0.84,-0.252c0.192,-0.168 0.336,-0.408 0.432,-0.72l1.668,0.348c-0.184,0.688 -0.532,1.218 -1.044,1.59c-0.512,0.372 -1.144,0.558 -1.896,0.558zm6.8803,0c-0.652,0 -1.224,-0.146 -1.716,-0.438c-0.492,-0.292 -0.876,-0.694 -1.152,-1.206c-0.272,-0.516 -0.408,-1.108 -0.408,-1.776c0,-0.676 0.14,-1.27 0.42,-1.782c0.28,-0.516 0.666,-0.918 1.158,-1.206c0.492,-0.288 1.058,-0.432 1.698,-0.432c0.652,0 1.224,0.146 1.716,0.438c0.496,0.292 0.882,0.696 1.158,1.212c0.276,0.512 0.414,1.102 0.414,1.77c0,0.672 -0.14,1.266 -0.42,1.782c-0.276,0.512 -0.662,0.914 -1.158,1.206c-0.492,0.288 -1.062,0.432 -1.71,0.432zm0,-1.524c0.524,0 0.914,-0.176 1.17,-0.528c0.26,-0.356 0.39,-0.812 0.39,-1.368c0,-0.576 -0.132,-1.036 -0.396,-1.38c-0.26,-0.344 -0.648,-0.516 -1.164,-0.516c-0.356,0 -0.648,0.08 -0.876,0.24c-0.228,0.16 -0.398,0.382 -0.51,0.666c-0.108,0.284 -0.162,0.614 -0.162,0.99c0,0.58 0.13,1.042 0.39,1.386c0.264,0.34 0.65,0.51 1.158,0.51zm7.3374,1.536c-0.624,-0.008 -1.152,-0.146 -1.584,-0.414c-0.432,-0.272 -0.772,-0.646 -1.02,-1.122c-0.244,-0.48 -0.396,-1.036 -0.456,-1.668c-0.032,-0.34 -0.04,-0.722 -0.024,-1.146c0.02,-0.428 0.066,-0.848 0.138,-1.26c0.072,-0.412 0.174,-0.766 0.306,-1.062c0.128,-0.276 0.292,-0.528 0.492,-0.756c0.204,-0.232 0.42,-0.428 0.648,-0.588c0.268,-0.188 0.556,-0.332 0.864,-0.432c0.308,-0.104 0.632,-0.184 0.972,-0.24c0.34,-0.056 0.692,-0.106 1.056,-0.15c0.368,-0.044 0.74,-0.102 1.116,-0.174l0.144,1.44c-0.228,0.06 -0.488,0.104 -0.78,0.132c-0.292,0.028 -0.592,0.058 -0.9,0.09c-0.308,0.028 -0.602,0.074 -0.882,0.138c-0.28,0.064 -0.522,0.16 -0.726,0.288c-0.276,0.172 -0.488,0.412 -0.636,0.72c-0.144,0.304 -0.228,0.612 -0.252,0.924c0.248,-0.36 0.55,-0.608 0.906,-0.744c0.36,-0.136 0.714,-0.204 1.062,-0.204c0.572,0 1.062,0.138 1.47,0.414c0.412,0.272 0.728,0.64 0.948,1.104c0.22,0.46 0.33,0.97 0.33,1.53c0,0.636 -0.138,1.194 -0.414,1.674c-0.272,0.48 -0.648,0.854 -1.128,1.122c-0.48,0.264 -1.03,0.392 -1.65,0.384zm0.072,-1.524c0.464,0 0.814,-0.144 1.05,-0.432c0.236,-0.288 0.354,-0.672 0.354,-1.152c0,-0.492 -0.122,-0.878 -0.366,-1.158c-0.24,-0.284 -0.586,-0.426 -1.038,-0.426c-0.46,0 -0.81,0.142 -1.05,0.426c-0.236,0.28 -0.354,0.666 -0.354,1.158c0,0.508 0.122,0.9 0.366,1.176c0.244,0.272 0.59,0.408 1.038,0.408zm6.8426,1.332l0,-8.64l1.656,0l3.756,5.76l0,-5.76l1.656,0l0,8.64l-1.656,0l-3.756,-5.76l0,5.76l-1.656,0zm10.08,-4.5c-0.396,0 -0.758,-0.096 -1.086,-0.288c-0.328,-0.196 -0.59,-0.456 -0.786,-0.78c-0.192,-0.328 -0.288,-0.692 -0.288,-1.092c0,-0.392 0.1,-0.752 0.3,-1.08c0.2,-0.328 0.464,-0.59 0.792,-0.786c0.328,-0.196 0.684,-0.294 1.068,-0.294c0.396,0 0.756,0.098 1.08,0.294c0.328,0.192 0.59,0.452 0.786,0.78c0.196,0.324 0.294,0.686 0.294,1.086c0,0.4 -0.098,0.764 -0.294,1.092c-0.196,0.324 -0.458,0.584 -0.786,0.78c-0.324,0.192 -0.684,0.288 -1.08,0.288zm0,-1.38c0.14,0 0.268,-0.036 0.384,-0.108c0.12,-0.072 0.216,-0.166 0.288,-0.282c0.072,-0.12 0.108,-0.25 0.108,-0.39c0,-0.14 -0.036,-0.268 -0.108,-0.384c-0.072,-0.12 -0.168,-0.216 -0.288,-0.288c-0.116,-0.072 -0.244,-0.108 -0.384,-0.108c-0.14,0 -0.27,0.036 -0.39,0.108c-0.116,0.072 -0.21,0.168 -0.282,0.288c-0.072,0.116 -0.108,0.244 -0.108,0.384c0,0.14 0.036,0.27 0.108,0.39c0.072,0.116 0.166,0.21 0.282,0.282c0.12,0.072 0.25,0.108 0.39,0.108zm-1.8,3.18l0,-1.26l3.6,0l0,1.26l-3.6,0zm7.9158,2.856c-0.432,0 -0.844,-0.086 -1.236,-0.258c-0.392,-0.176 -0.734,-0.422 -1.026,-0.738c-0.288,-0.316 -0.494,-0.688 -0.618,-1.116l1.584,-0.42c0.084,0.316 0.248,0.562 0.492,0.738c0.248,0.172 0.516,0.258 0.804,0.258c0.248,0 0.474,-0.06 0.678,-0.18c0.208,-0.12 0.372,-0.282 0.492,-0.486c0.124,-0.204 0.186,-0.43 0.186,-0.678c0,-0.372 -0.128,-0.69 -0.384,-0.954c-0.252,-0.268 -0.576,-0.402 -0.972,-0.402c-0.12,0 -0.236,0.018 -0.348,0.054c-0.112,0.032 -0.22,0.078 -0.324,0.138l-0.732,-1.284l2.748,-2.28l0.12,0.348l-4.008,0l0,-1.536l5.4,0l0,1.536l-2.136,2.064l-0.012,-0.456c0.496,0.076 0.914,0.25 1.254,0.522c0.344,0.268 0.604,0.6 0.78,0.996c0.18,0.392 0.27,0.81 0.27,1.254c0,0.544 -0.138,1.034 -0.414,1.47c-0.276,0.432 -0.642,0.776 -1.098,1.032c-0.456,0.252 -0.956,0.378 -1.5,0.378z"/>
 </g>
</svg>